# xmcd CD database file
#
# Track frame offsets:
#	150
#	16692
#	19190
#	66779
#	75108
#	116220
#	120578
#	165214
#	169269
#	204644
#	210278
#	254372
#	264421
#
# Disc length: 4222 seconds
#
# Revision: 1
# Processed by: cddbd v1.5.2PL0 Copyright (c) Steve Scherf et al.
# Submitted via: CDex 1.51
#
DISCID=9c107c0d
DTITLE=Munich Jazz Orchestra and Kenny Wheeler - Sometime Suite
DYEAR=1999
DGENRE=Jazz
TTITLE0=Intro
TTITLE1=Interlude
TTITLE2=Deriviation
TTITLE3=Interlude
TTITLE4=The Deathly Child
TTITLE5=Interlude
TTITLE6=Phrase Second
TTITLE7=Interlude
TTITLE8=Wiljun
TTITLE9=Interlude
TTITLE10=Anita
TTITLE11=Interlude
TTITLE12=Thrawa
EXTD=YEAR: 1999
EXTT0=
EXTT1=
EXTT2=
EXTT3=
EXTT4=
EXTT5=
EXTT6=
EXTT7=
EXTT8=
EXTT9=
EXTT10=
EXTT11=
EXTT12=
PLAYORDER=
